<svg xmlns="http://www.w3.org/2000/svg" xmlns:xlink="http://www.w3.org/1999/xlink" version="1.1" id="Capa_1" x="0px" y="0px" viewBox="0 0 512 512" style="enable-background:new 0 0 512 512;" xml:space="preserve" width="300" height="300" xmlns:svgjs="http://svgjs.dev/svgjs"><g width="100%" height="100%" transform="matrix(1,0,0,1,0,0)"><g>
	<g>
		<g>
			<polygon style="" points="38.652,397.211 28.706,387.266 63.591,352.38 73.537,362.326 63.166,386.84 &#9;&#9;&#9;" fill="#127f80" fill-opacity="1" data-original-color="#f9f7f8ff" stroke="none" stroke-opacity="1"/>
			
				<rect x="54.035" y="360.074" transform="matrix(0.7071 0.7071 -0.7071 0.7071 289.9411 69.5081)" style="" width="14.065" height="49.335" fill="#127f80" fill-opacity="1" data-original-color="#e5e1e5ff" stroke="none" stroke-opacity="1"/>
			<path style="" d="M448.996,482.892l-3.651-17.339c-2.43-18.197-5.788-32.034-23.631-36.353l-24.224-6.865&#10;&#9;&#9;&#9;&#9;l-87.885-21.277c-2.3-0.557-3.92-2.615-3.92-4.982V349.18l-50.27,0.175l-50.27-0.175v46.896c0,2.366-1.62,4.425-3.919,4.982&#10;&#9;&#9;&#9;&#9;L89.118,428.199c-17.843,4.32-31.201,19.156-33.631,37.353l-3.651,17.339c-0.821,6.146,3.96,11.608,10.161,11.608l198.157-0.912&#10;&#9;&#9;&#9;&#9;l27.245,0.949l151.435-0.036C445.035,494.5,449.816,489.038,448.996,482.892z" fill="#127f80" fill-opacity="1" data-original-color="#ffac9bff" stroke="none" stroke-opacity="1"/>
			<g>
				<path style="" d="M458.996,492.892l-3.651-27.339c-2.43-18.197-15.788-33.034-33.631-37.353l-24.223-5.865&#10;&#9;&#9;&#9;&#9;&#9;c14.699,7.308,25.143,21.523,27.379,38.265l4.115,30.816c0.925,6.928-4.464,13.084-11.453,13.084h31.304&#10;&#9;&#9;&#9;&#9;&#9;C455.035,504.5,459.816,499.038,458.996,492.892z" fill="#127f80" fill-opacity="1" data-original-color="#fc9483ff" stroke="none" stroke-opacity="1"/>
			</g>
			<path style="" d="M316.75,261.713H195.25c-49.984,0-90.504-40.52-90.504-90.505v-12.454&#10;&#9;&#9;&#9;&#9;c0-78.314,59.518-142.727,135.789-150.473C245.62,7.765,250.779,8.5,256,8.5h0c83.535,0,141.254,66.719,141.254,150.254v12.454&#10;&#9;&#9;&#9;&#9;C397.254,221.193,366.734,261.713,316.75,261.713z" fill="#127f80" fill-opacity="1" data-original-color="#99e6fcff" stroke="none" stroke-opacity="1"/>
			<path style="" d="M256,7.5L256,7.5c-5.063,0-10.065,0.254-15,0.74c76.493,7.531,136.254,72.041,136.254,150.514&#10;&#9;&#9;&#9;&#9;v12.454c0,49.984-40.52,90.505-90.505,90.505h30c49.984,0,90.505-40.52,90.505-90.505v-12.454&#10;&#9;&#9;&#9;&#9;C407.254,75.219,339.535,7.5,256,7.5z" fill="#127f80" fill-opacity="1" data-original-color="#01d0fbff" stroke="none" stroke-opacity="1"/>
			<path style="" d="M378.341,198.911h-19.632v73.465h19.632c20.287,0,36.732-16.445,36.732-36.732&#10;&#9;&#9;&#9;&#9;C415.073,215.357,398.628,198.911,378.341,198.911z" fill="#127f80" fill-opacity="1" data-original-color="#ffac9bff" stroke="none" stroke-opacity="1"/>
			<path style="" d="M132.516,272.376h19.632v-73.465h-19.632c-20.287,0-36.732,16.445-36.732,36.732&#10;&#9;&#9;&#9;&#9;C95.784,255.93,112.23,272.376,132.516,272.376z" fill="#127f80" fill-opacity="1" data-original-color="#ffac9bff" stroke="none" stroke-opacity="1"/>
			<g>
				<path style="" d="M255.429,386.248L255.429,386.248c-5.954,0-11.799,0.535-17.501-0.361&#10;&#9;&#9;&#9;&#9;&#9;c-53.441-8.4-94.316-54.654-94.316-110.455v-78.784c0-55.801,40.874-102.055,94.316-110.455&#10;&#9;&#9;&#9;&#9;&#9;c5.702-0.896,11.547-0.362,17.501-0.362h0c61.755,0,101.816,49.062,101.816,110.816v78.784&#10;&#9;&#9;&#9;&#9;&#9;C357.245,337.186,317.183,386.248,255.429,386.248z" fill="#127f80" fill-opacity="1" data-original-color="#ffdeceff" stroke="none" stroke-opacity="1"/>
				<path style="" d="M255.429,84.831L255.429,84.831c-5.954,0-11.798,0.47-17.5,1.367&#10;&#9;&#9;&#9;&#9;&#9;c53.441,8.4,94.316,54.649,94.316,110.45v78.784c0,55.801-40.875,102.05-94.316,110.45c5.702,0.896,11.546,1.366,17.5,1.366h0&#10;&#9;&#9;&#9;&#9;&#9;c61.755,0,111.816-50.062,111.816-111.816v-78.784C367.245,134.893,317.183,84.831,255.429,84.831z" fill="#127f80" fill-opacity="1" data-original-color="#ffcdbcff" stroke="none" stroke-opacity="1"/>
			</g>
			<path style="" d="M89.086,377.875l-38.168-38.168l21.845-21.845l12.364,1.757l-1.757-12.364l16.541-16.541&#10;&#9;&#9;&#9;&#9;l9.771-0.835l0.835-9.771l4.005-4.004c9.625-9.625,23.859-11.835,35.599-6.627c3.497,1.551,4.971,5.562,7.839,8.429l0,0&#10;&#9;&#9;&#9;&#9;c12.493,12.493,7.223,23.874-5.269,36.366L89.086,377.875z" fill="#127f80" fill-opacity="1" data-original-color="#fe93d3ff" stroke="none" stroke-opacity="1"/>
			<path style="" d="M159.761,276.102L159.761,276.102c-2.867-2.867-6.146-5.068-9.644-6.62&#10;&#9;&#9;&#9;&#9;c5.207,11.74,3.006,25.97-6.619,35.596l-63.604,63.604l16.263,16.263l63.604-63.604&#10;&#9;&#9;&#9;&#9;C172.254,308.849,172.254,288.595,159.761,276.102z" fill="#127f80" fill-opacity="1" data-original-color="#fe4fb7ff" stroke="none" stroke-opacity="1"/>
			<path style="" d="M489.5,463.953h-477c-2.761,0-5,2.239-5,5V499.5c0,2.761,2.239,5,5,5h477c2.761,0,5-2.239,5-5&#10;&#9;&#9;&#9;&#9;v-30.547C494.5,466.192,492.261,463.953,489.5,463.953z" fill="#127f80" fill-opacity="1" data-original-color="#99e6fcff" stroke="none" stroke-opacity="1"/>
			<path style="" d="M499.5,463.953h-30c2.762,0,5,2.239,5,5V499.5c0,2.761-2.238,5-5,5h30c2.762,0,5-2.239,5-5&#10;&#9;&#9;&#9;&#9;v-30.547C504.5,466.192,502.262,463.953,499.5,463.953z" fill="#127f80" fill-opacity="1" data-original-color="#01d0fbff" stroke="none" stroke-opacity="1"/>
			<path style="" d="M329.345,300.706l34.711,41.756c5.057,6.083,12.817,9.239,20.684,8.412l15.757-1.657&#10;&#9;&#9;&#9;&#9;l61.018,61.018c4.313,4.314,11.307,4.314,15.621,0l0,0c4.314-4.314,4.314-11.307,0-15.621L337.776,255.255&#10;&#9;&#9;&#9;&#9;c-1.751-1.751-4.591-1.751-6.342,0l0,0C319.099,267.59,318.193,287.291,329.345,300.706z" fill="#127f80" fill-opacity="1" data-original-color="#e5e1e5ff" stroke="none" stroke-opacity="1"/>
		</g>
	</g>
	<g>
		<path style="stroke-linecap: round; stroke-linejoin: round; stroke-miterlimit: 10;" d="&#10;&#9;&#9;&#9;M371.294,272.376h7.047c20.287,0,36.732-16.445,36.732-36.732c0-20.287-16.445-36.733-36.732-36.733h-7.047" fill="none" fill-opacity="1" stroke="#fffdfd" stroke-opacity="1" data-original-stroke-color="#000000ff" stroke-width="15" data-original-stroke-width="15"/>
		<path style="stroke-linecap: round; stroke-linejoin: round; stroke-miterlimit: 10;" d="&#10;&#9;&#9;&#9;M215.78,190.72c-8.026-3.293-16.242-3.152-24.624,0" fill="none" fill-opacity="1" stroke="#fffdfd" stroke-opacity="1" data-original-stroke-color="#000000ff" stroke-width="15" data-original-stroke-width="15"/>
		<path style="stroke-linecap: round; stroke-linejoin: round; stroke-miterlimit: 10;" d="&#10;&#9;&#9;&#9;M319.525,190.72c-8.026-3.293-16.242-3.152-24.624,0" fill="none" fill-opacity="1" stroke="#fffdfd" stroke-opacity="1" data-original-stroke-color="#000000ff" stroke-width="15" data-original-stroke-width="15"/>
		<path style="stroke-linecap: round; stroke-linejoin: round; stroke-miterlimit: 10;" d="&#10;&#9;&#9;&#9;M294.901,234.83c8.026,3.293,16.242,3.152,24.624,0" fill="none" fill-opacity="1" stroke="#fffdfd" stroke-opacity="1" data-original-stroke-color="#000000ff" stroke-width="15" data-original-stroke-width="15"/>
		<path style="stroke-linecap: round; stroke-linejoin: round; stroke-miterlimit: 10;" d="&#10;&#9;&#9;&#9;M191.156,234.83c8.026,3.293,16.242,3.152,24.624,0" fill="none" fill-opacity="1" stroke="#fffdfd" stroke-opacity="1" data-original-stroke-color="#000000ff" stroke-width="15" data-original-stroke-width="15"/>
		<path style="stroke-linecap: round; stroke-linejoin: round; stroke-miterlimit: 10;" d="&#10;&#9;&#9;&#9;M230.805,319.395c16.053,6.585,32.484,6.305,49.247,0" fill="none" fill-opacity="1" stroke="#fffdfd" stroke-opacity="1" data-original-stroke-color="#000000ff" stroke-width="15" data-original-stroke-width="15"/>
		
			<line style="stroke-linecap: round; stroke-linejoin: round; stroke-miterlimit: 10;" x1="160.468" y1="275.395" x2="181.921" y2="253.942" fill="none" fill-opacity="1" stroke="#fffdfd" stroke-opacity="1" data-original-stroke-color="#000000ff" stroke-width="15" data-original-stroke-width="15"/>
		
			<line style="stroke-linecap: round; stroke-linejoin: round; stroke-miterlimit: 10;" x1="40.112" y1="328.901" x2="106.963" y2="395.751" fill="none" fill-opacity="1" stroke="#fffdfd" stroke-opacity="1" data-original-stroke-color="#000000ff" stroke-width="15" data-original-stroke-width="15"/>
		
			<line style="stroke-linecap: round; stroke-linejoin: round; stroke-miterlimit: 10;" x1="19.13" y1="377.689" x2="58.174" y2="416.733" fill="none" fill-opacity="1" stroke="#fffdfd" stroke-opacity="1" data-original-stroke-color="#000000ff" stroke-width="15" data-original-stroke-width="15"/>
		
			<line style="stroke-linecap: round; stroke-linejoin: round; stroke-miterlimit: 10;" x1="105.921" y1="286.117" x2="120.762" y2="300.959" fill="none" fill-opacity="1" stroke="#fffdfd" stroke-opacity="1" data-original-stroke-color="#000000ff" stroke-width="15" data-original-stroke-width="15"/>
		
			<line style="stroke-linecap: round; stroke-linejoin: round; stroke-miterlimit: 10;" x1="78.773" y1="313.265" x2="93.614" y2="328.107" fill="none" fill-opacity="1" stroke="#fffdfd" stroke-opacity="1" data-original-stroke-color="#000000ff" stroke-width="15" data-original-stroke-width="15"/>
		
			<line style="stroke-linecap: round; stroke-linejoin: round; stroke-miterlimit: 10;" x1="82.331" y1="373.424" x2="50.012" y2="405.742" fill="none" fill-opacity="1" stroke="#fffdfd" stroke-opacity="1" data-original-stroke-color="#000000ff" stroke-width="15" data-original-stroke-width="15"/>
		
			<line style="stroke-linecap: round; stroke-linejoin: round; stroke-miterlimit: 10;" x1="30.121" y1="385.851" x2="62.44" y2="353.532" fill="none" fill-opacity="1" stroke="#fffdfd" stroke-opacity="1" data-original-stroke-color="#000000ff" stroke-width="15" data-original-stroke-width="15"/>
		<path style="stroke-linecap: round; stroke-linejoin: round; stroke-miterlimit: 10;" d="&#10;&#9;&#9;&#9;M499.5,463.953h-487c-2.761,0-5,2.239-5,5V499.5c0,2.761,2.239,5,5,5h487c2.761,0,5-2.239,5-5v-30.547&#10;&#9;&#9;&#9;C504.5,466.192,502.261,463.953,499.5,463.953z" fill="none" fill-opacity="1" stroke="#fffdfd" stroke-opacity="1" data-original-stroke-color="#000000ff" stroke-width="15" data-original-stroke-width="15"/>
		<path style="stroke-linecap: round; stroke-linejoin: round; stroke-miterlimit: 10;" d="&#10;&#9;&#9;&#9;M329.345,300.706l34.711,41.756c5.057,6.083,12.817,9.239,20.684,8.412l15.757-1.657l61.018,61.018&#10;&#9;&#9;&#9;c4.313,4.314,11.307,4.314,15.621,0l0,0c4.314-4.314,4.314-11.307,0-15.621L337.776,255.255c-1.751-1.751-4.591-1.751-6.342,0l0,0&#10;&#9;&#9;&#9;C319.099,267.59,318.193,287.291,329.345,300.706z" fill="none" fill-opacity="1" stroke="#fffdfd" stroke-opacity="1" data-original-stroke-color="#000000ff" stroke-width="15" data-original-stroke-width="15"/>
		<path style="stroke-linecap: round; stroke-linejoin: round; stroke-miterlimit: 10;" d="&#10;&#9;&#9;&#9;M205.146,377.253v18.823c0,2.366-1.62,4.425-3.919,4.982L89.118,428.199c-16.602,4.019-29.321,17.143-32.967,33.607" fill="none" fill-opacity="1" stroke="#fffdfd" stroke-opacity="1" data-original-stroke-color="#000000ff" stroke-width="15" data-original-stroke-width="15"/>
		<path style="stroke-linecap: round; stroke-linejoin: round; stroke-miterlimit: 10;" d="&#10;&#9;&#9;&#9;M141.604,198.911h-9.088c-20.287,0-36.732,16.445-36.732,36.732c0,16.175,10.454,29.908,24.975,34.811" fill="none" fill-opacity="1" stroke="#fffdfd" stroke-opacity="1" data-original-stroke-color="#000000ff" stroke-width="15" data-original-stroke-width="15"/>
		<path style="stroke-linecap: round; stroke-linejoin: round; stroke-miterlimit: 10;" d="&#10;&#9;&#9;&#9;M352.484,330.996c-19.284,33.611-55.526,56.251-97.055,56.251h0c-42.456,0-79.386-23.662-98.321-58.518" fill="none" fill-opacity="1" stroke="#fffdfd" stroke-opacity="1" data-original-stroke-color="#000000ff" stroke-width="15" data-original-stroke-width="15"/>
		<path style="stroke-linecap: round; stroke-linejoin: round; stroke-miterlimit: 10;" d="&#10;&#9;&#9;&#9;M143.612,264.668v-68.021c0-61.755,50.062-111.816,111.816-111.816h0c61.755,0,111.816,50.062,111.816,111.816v78.784&#10;&#9;&#9;&#9;c0,2.49-0.081,4.961-0.242,7.411" fill="none" fill-opacity="1" stroke="#fffdfd" stroke-opacity="1" data-original-stroke-color="#000000ff" stroke-width="15" data-original-stroke-width="15"/>
		
			<line style="stroke-linecap: round; stroke-linejoin: round; stroke-miterlimit: 10;" x1="112.893" y1="368.21" x2="97.571" y2="383.532" fill="none" fill-opacity="1" stroke="#fffdfd" stroke-opacity="1" data-original-stroke-color="#000000ff" stroke-width="15" data-original-stroke-width="15"/>
		<path style="stroke-linecap: round; stroke-linejoin: round; stroke-miterlimit: 10;" d="&#10;&#9;&#9;&#9;M52.332,338.292l62.19-62.19c12.493-12.493,32.747-12.493,45.24,0h0c12.493,12.493,12.493,32.747,0,45.24l-23.755,23.755" fill="none" fill-opacity="1" stroke="#fffdfd" stroke-opacity="1" data-original-stroke-color="#000000ff" stroke-width="15" data-original-stroke-width="15"/>
		<path style="stroke-linecap: round; stroke-linejoin: round; stroke-miterlimit: 10;" d="&#10;&#9;&#9;&#9;M338.154,407.97l-28.549-6.912c-2.3-0.557-3.92-2.615-3.92-4.982v-18.823" fill="none" fill-opacity="1" stroke="#fffdfd" stroke-opacity="1" data-original-stroke-color="#000000ff" stroke-width="15" data-original-stroke-width="15"/>
		<path style="stroke-linecap: round; stroke-linejoin: round; stroke-miterlimit: 10;" d="&#10;&#9;&#9;&#9;M454.681,461.807c-3.646-16.465-16.365-29.588-32.968-33.608l-51.791-12.539" fill="none" fill-opacity="1" stroke="#fffdfd" stroke-opacity="1" data-original-stroke-color="#000000ff" stroke-width="15" data-original-stroke-width="15"/>
		<path style="stroke-linecap: round; stroke-linejoin: round; stroke-miterlimit: 10;" d="&#10;&#9;&#9;&#9;M158.353,43.238C184.702,20.943,218.781,7.5,256,7.5h0c83.535,0,151.254,67.719,151.254,151.254v12.454&#10;&#9;&#9;&#9;c0,11.732-2.232,22.943-6.295,33.231" fill="none" fill-opacity="1" stroke="#fffdfd" stroke-opacity="1" data-original-stroke-color="#000000ff" stroke-width="15" data-original-stroke-width="15"/>
		<path style="stroke-linecap: round; stroke-linejoin: round; stroke-miterlimit: 10;" d="&#10;&#9;&#9;&#9;M111.021,204.389c-4.05-10.274-6.275-21.467-6.275-33.18v-12.454c0-34.536,11.575-66.369,31.057-91.831" fill="none" fill-opacity="1" stroke="#fffdfd" stroke-opacity="1" data-original-stroke-color="#000000ff" stroke-width="15" data-original-stroke-width="15"/>
	</g>
</g></g></svg>