<svg width="24" height="27" viewBox="0 0 24 27" fill="none" xmlns="http://www.w3.org/2000/svg">
<path d="M24 25.9453V27H0V25.9453C0 25.5958 0.287839 25.3125 0.642857 25.3125H1.71429V6.32812C1.71429 5.62913 2.28991 5.0625 3 5.0625H7.71429V1.26562C7.71429 0.566631 8.28991 0 9 0H15C15.7101 0 16.2857 0.566631 16.2857 1.26562V5.0625H21C21.7101 5.0625 22.2857 5.62913 22.2857 6.32812V25.3125H23.3571C23.7122 25.3125 24 25.5958 24 25.9453ZM16.5 10.125H14.3571C14.0021 10.125 13.7143 10.4083 13.7143 10.7578V12.8672C13.7143 13.2167 14.0021 13.5 14.3571 13.5H16.5C16.855 13.5 17.1429 13.2167 17.1429 12.8672V10.7578C17.1429 10.4083 16.855 10.125 16.5 10.125ZM7.5 13.5H9.64286C9.99788 13.5 10.2857 13.2167 10.2857 12.8672V10.7578C10.2857 10.4083 9.99788 10.125 9.64286 10.125H7.5C7.14498 10.125 6.85714 10.4083 6.85714 10.7578V12.8672C6.85714 13.2167 7.14498 13.5 7.5 13.5ZM13.0714 20.25H10.9286C10.5736 20.25 10.2857 20.5333 10.2857 20.8828V25.3125H13.7143V20.8828C13.7143 20.5333 13.4264 20.25 13.0714 20.25ZM16.5 15.1875H14.3571C14.0021 15.1875 13.7143 15.4708 13.7143 15.8203V17.9297C13.7143 18.2792 14.0021 18.5625 14.3571 18.5625H16.5C16.855 18.5625 17.1429 18.2792 17.1429 17.9297V15.8203C17.1429 15.4708 16.855 15.1875 16.5 15.1875ZM10.2857 15.8203C10.2857 15.4708 9.99788 15.1875 9.64286 15.1875H7.5C7.14498 15.1875 6.85714 15.4708 6.85714 15.8203V17.9297C6.85714 18.2792 7.14498 18.5625 7.5 18.5625H9.64286C9.99788 18.5625 10.2857 18.2792 10.2857 17.9297V15.8203ZM9.75 5.0625H11.1429V6.43359C11.1429 6.51751 11.1767 6.59799 11.237 6.65733C11.2973 6.71666 11.379 6.75 11.4643 6.75H12.5357C12.621 6.75 12.7027 6.71666 12.763 6.65733C12.8233 6.59799 12.8571 6.51751 12.8571 6.43359V5.0625H14.25C14.3352 5.0625 14.417 5.02916 14.4773 4.96983C14.5376 4.91049 14.5714 4.83001 14.5714 4.74609V3.69141C14.5714 3.60749 14.5376 3.52701 14.4773 3.46767C14.417 3.40834 14.3352 3.375 14.25 3.375H12.8571V2.00391C12.8571 1.91999 12.8233 1.83951 12.763 1.78017C12.7027 1.72084 12.621 1.6875 12.5357 1.6875H11.4643C11.379 1.6875 11.2973 1.72084 11.237 1.78017C11.1767 1.83951 11.1429 1.91999 11.1429 2.00391V3.375H9.75C9.66475 3.375 9.583 3.40834 9.52272 3.46767C9.46244 3.52701 9.42857 3.60749 9.42857 3.69141V4.74609C9.42857 4.83001 9.46244 4.91049 9.52272 4.96983C9.583 5.02916 9.66475 5.0625 9.75 5.0625Z" fill="#1E0B9B"/>
</svg>
