<svg width="100" height="100" viewBox="0 0 100 100" fill="none" xmlns="http://www.w3.org/2000/svg">
<circle cx="50" cy="50" r="48.5" fill="#001862" stroke="white" stroke-width="3"/>
<path d="M50 23C35.0886 23 23 35.0886 23 50C23 56.534 25.322 62.528 29.1855 67.1965L23.7364 77H50C64.9114 77 77 64.9114 77 50C77 35.0886 64.9114 23 50 23ZM40.9992 53.9273C41.7632 55.6794 43.0219 57.1704 44.6209 58.2176C46.2199 59.2648 48.0898 59.8226 50.0012 59.8226C51.9126 59.8226 53.7825 59.2648 55.3816 58.2176C56.9806 57.1704 58.2393 55.6794 59.0033 53.9273L59.9851 51.6765L64.4843 53.6425L63.5025 55.8909C62.3564 58.5184 60.4685 60.7544 58.0703 62.3247C55.6721 63.8951 52.8678 64.7315 50.0012 64.7315C47.1346 64.7315 44.3304 63.8951 41.9322 62.3247C39.534 60.7544 37.6461 58.5184 36.5 55.8909L35.5182 53.6425L40.0149 51.6789L40.9992 53.9273Z" fill="white"/>
</svg>
