<svg viewBox="0 0 512 512" xmlns="http://www.w3.org/2000/svg" xmlns:xlink="http://www.w3.org/1999/xlink"><linearGradient id="linear-gradient" gradientUnits="userSpaceOnUse" x1="74.98" x2="437.02" y1="74.98" y2="437.02"><stop offset="0" stop-color="#01b2fd"/><stop offset="1" stop-color="#276eff"/></linearGradient><linearGradient id="linear-gradient-2" gradientUnits="userSpaceOnUse" x1="140.07" x2="443.19" y1="127.73" y2="430.84"><stop offset="0" stop-color="#0053cc"/><stop offset="1" stop-color="#0053cc" stop-opacity="0"/></linearGradient><g id="Layer_2" data-name="Layer 2"><g id="Layer_2_copy_10" data-name="Layer 2 copy 10"><g id="_31" data-name="31"><circle id="background" cx="256" cy="256" fill="url(#linear-gradient)" r="256"/><path d="m508.87 296.08c-16.08 102.32-92.79 184.52-192.2 208.69l-215.67-215.67v-122.29l6.26-6.27h259.13l32.54 32.55 6.69-.26z" fill="url(#linear-gradient-2)"/><g fill="#fff"><path d="m405.62 182.83h-23v-16a16.29 16.29 0 0 0 -16.26-16.27h-259.1a16.29 16.29 0 0 0 -16.26 16.25v122.29a16.29 16.29 0 0 0 16.26 16.26h16.09v18.29a15.4 15.4 0 0 0 15.38 15.35h210.37l48.37 32.06c.22.15.44.28.67.41a15.38 15.38 0 0 0 22.86-13.4v-159.86a15.4 15.4 0 0 0 -15.38-15.38zm-282.27 15.38v87.15h-12.35v-114.82h251.65v12.29h-223.92a15.4 15.4 0 0 0 -15.38 15.38zm277.65 151.24-43.36-28.75a10.05 10.05 0 0 0 -5.53-1.66h-208.76v-116.21h257.65z"/><rect height="21.19" rx="10.6" width="151.92" x="196.21" y="230.44"/><path d="m337.54 270.24h-130.73a10.6 10.6 0 1 0 0 21.19h130.73a10.6 10.6 0 0 0 0-21.19z"/></g><path id="background-2" d="m256 20a236.06 236.06 0 0 1 91.86 453.46 236.07 236.07 0 0 1 -183.72-434.92 234.56 234.56 0 0 1 91.86-18.54m0-20c-141.38 0-256 114.62-256 256s114.62 256 256 256 256-114.62 256-256-114.62-256-256-256z" fill="#0053cc" data-name="background"/></g></g></g></svg>