<svg height="512" viewBox="0 0 58 59" width="512" xmlns="http://www.w3.org/2000/svg"><g id="Page-1" fill="none" fill-rule="evenodd"><g id="045---Prayer-Hands"><path id="Path" d="m29 8.32v36.68c0 6-2 7-4 8-1.0922703.5166441-2.1029938 1.1904597-3 2-.33 0-.66-.01-.97-.02-9.1-.51-10.03-7.98-10.03-7.98 9-5 8-13 8-17 .1425396-2.395334.8927856-4.7149021 2.18-6.74.5419923-.909108.8766203-1.9266503.98-2.98l.72-7.91 1.59-4.78c.2604197-.77579298.9101346-1.35711692 1.71-1.53.1636109-.040235.3315149-.06038349.5-.06 1.2808436.00110275 2.3188972 1.03915643 2.32 2.32z" fill="#f9c795"/><path id="Path" d="m28 8.32v36.68c0 6-2 7-4 8-1.079554.5146419-2.0797328 1.1814278-2.97 1.98-9.1-.51-10.03-7.98-10.03-7.98 9-5 8-13 8-17 .1425396-2.395334.8927856-4.7149021 2.18-6.74.5419923-.909108.8766203-1.9266503.98-2.98l.72-7.91 1.59-4.78c.2604197-.77579298.9101346-1.35711692 1.71-1.53 1.0635856.23008297 1.8219708 1.17181406 1.82 2.26z" fill="#fdd7ad"/><path id="Path" d="m29 2.61v5.71c-.0035544-1.13852618-.8310614-2.10699336-1.9550919-2.28812852-1.1240305-.18113515-2.2138792.47835417-2.5749081 1.55812852l-1.59 4.78.9-9.99c.1148793-1.35324022 1.2519299-2.39009091 2.61-2.38 1.4410061.00110295 2.608897 1.16899391 2.61 2.61z" fill="#f9c795"/><path id="Path" d="m22 55v1.01c.0000138 1.100676-.8893377 1.9944966-1.99 2l-18 .07c-.53216349.0026609-1.04344411-.2068776-1.42068246-.5822391-.37723835-.3753616-.58932419-.8855908-.58931754-1.4177609v-4.93c.0016555-.7293244.40018405-1.3999253 1.04-1.75 2.77155361-1.5198081 5.65292849-2.8301317 8.62-3.92.3063999-.1107754.6475555-.0653389.9142822.1217679s.4255792.4924222.4257178.8182321v.58s1 8 11 8z" fill="#3b97d3"/><path id="Path" d="m35.12 12.37-1.59-4.78c-.3610289-1.07977435-1.4508776-1.73926367-2.5749081-1.55812852-1.1240305.18113516-1.9515375 1.14960234-1.9550919 2.28812852v-5.71c.001103-1.44100609 1.1689939-2.60889705 2.61-2.61 1.3580701-.01009091 2.4951207 1.02675978 2.61 2.38z" fill="#f9c795"/><path id="Path" d="m47 47s-.93 7.47-10.03 7.98c-.31.01-.64.02-.97.02-.8970062-.8095403-1.9077297-1.4833559-3-2-2-1-4-2-4-8v-36.68c.0011028-1.28084357 1.0391564-2.31889725 2.32-2.32.1684851-.00038349.3363891.019765.5.06.7998654.17288308 1.4495803.75420702 1.71 1.53l1.59 4.78.72 7.91c.1033797 1.0533497.4380077 2.070892.98 2.98 1.2872144 2.0250979 2.0374604 4.344666 2.18 6.74 0 4-1 12 8 17z" fill="#f9c795"/><path id="Path" d="m47 47s-.93 7.47-10.03 7.98c-.8902672-.7985722-1.890446-1.4653581-2.97-1.98-2-1-4-2-4-8v-36.68c-.0019708-1.08818594.7564144-2.02991703 1.82-2.26.7998654.17288308 1.4495803.75420702 1.71 1.53l1.59 4.78.72 7.91c.1033797 1.0533497.4380077 2.070892.98 2.98 1.2872144 2.0250979 2.0374604 4.344666 2.18 6.74 0 4-1 12 8 17z" fill="#fdd7ad"/><path id="Path" d="m58 51.15v4.93c.0000067.5321701-.2120792 1.0423993-.5893175 1.4177609-.3772384.3753615-.888519.5849-1.4206825.5822391l-18-.07c-1.1006623-.0055034-1.9900138-.899324-1.99-2v-1.01c10 0 11-8 11-8v-.58c.0001386-.3258099.1589911-.6311253.4257178-.8182321s.6078823-.2325433.9142822-.1217679c2.9670715 1.0898683 5.8484464 2.4001919 8.62 3.92.639816.3500747 1.0383445 1.0206756 1.04 1.75z" fill="#3b97d3"/></g></g></svg>